<svg width="256" height="256" viewBox="0 0 256 256" fill="none" xmlns="http://www.w3.org/2000/svg">
  <path d="M86 18H178L226 66V212C226 226.359 214.359 238 200 238H86C71.6406 238 60 226.359 60 212V44C60 29.6406 71.6406 18 86 18Z" fill="white" stroke="#C7CDD6" stroke-width="4"/>
  <path d="M178 18V56C178 68.1503 187.85 78 200 78H226" fill="#F3F4F6"/>
  <path d="M178 18V56C178 68.1503 187.85 78 200 78H226" stroke="#C7CDD6" stroke-width="4"/>
  <path d="M86 94H200" stroke="#C7CDD6" stroke-width="3"/>
  <path d="M86 128H200" stroke="#C7CDD6" stroke-width="3"/>
  <path d="M86 162H200" stroke="#C7CDD6" stroke-width="3"/>
  <path d="M86 196H200" stroke="#C7CDD6" stroke-width="3"/>
  <path d="M122 70V212" stroke="#C7CDD6" stroke-width="3"/>
  <path d="M158 70V212" stroke="#C7CDD6" stroke-width="3"/>
  <rect x="24" y="146" width="86" height="86" rx="14" fill="#1D944C"/>
  <path d="M67.1765 171L56 171L69.4118 191L55.3529 211H66.8235L75.6471 198L84.3529 211H96L82.1765 190.765L95.2941 171H83.9412L75.8235 183.412L67.1765 171Z" fill="white"/>
</svg>
