<svg width="128" height="128" viewBox="0 0 128 128" fill="none" xmlns="http://www.w3.org/2000/svg" aria-hidden="true">
  <path d="M36 58C36 42.536 48.536 30 64 30C79.464 30 92 42.536 92 58V72.7C92 82.409 95.858 91.72 102.728 98.592L104 99.864V106H24V99.864L25.272 98.592C32.142 91.72 36 82.409 36 72.7V58Z" stroke="#667085" stroke-width="7.5" stroke-linecap="round" stroke-linejoin="round"/>
  <path d="M54 106C55.474 111.812 59.438 116 64 116C68.562 116 72.526 111.812 74 106" stroke="#667085" stroke-width="7.5" stroke-linecap="round" stroke-linejoin="round"/>
  <path d="M58 30V24C58 20.686 60.686 18 64 18C67.314 18 70 20.686 70 24V30" stroke="#667085" stroke-width="7.5" stroke-linecap="round" stroke-linejoin="round"/>
</svg>
